# xmcd
#
# Track frame offsets: 
#        150
#        14947
#        29279
#        43102
#        60707
#        76484
#        91627
#        108283
#
# Disc length: 1630 seconds
#
# Revision: 1
# Processed by: cddbd v1.5.2PL0 Copyright (c) Steve Scherf et al.
# Submitted via: ExactAudioCopy v1.1
#
DISCID=5f065c08
DTITLE=Pritchett, Aaron - The Score
DYEAR=2016
DGENRE=Country
TTITLE0=VW Bus
TTITLE1=Out of the Blue
TTITLE2=Love On
TTITLE3=When a Momma's Boy Meets a Daddy's Girl
TTITLE4=Dirt Road in 'Em
TTITLE5=Cool It Down
TTITLE6=Lifeline
TTITLE7=All Night Baby
EXTD=
EXTT0=
EXTT1=
EXTT2=
EXTT3=
EXTT4=
EXTT5=
EXTT6=
EXTT7=
PLAYORDER=
